<?xml version="1.0" encoding="iso-8859-1"?>
<!-- Uploaded to: SVG Repo, www.svgrepo.com, Generator: SVG Repo Mixer Tools -->
<!DOCTYPE svg PUBLIC "-//W3C//DTD SVG 1.1//EN" "http://www.w3.org/Graphics/SVG/1.1/DTD/svg11.dtd">
<svg fill="#000000" version="1.1" id="Capa_1" xmlns="http://www.w3.org/2000/svg" xmlns:xlink="http://www.w3.org/1999/xlink" 
	 width="800px" height="800px" viewBox="0 0 32.309 32.309"
	 xml:space="preserve">
<g>
	<path d="M25.705,24.796c-2.544,1.297-5.253,1.077-6.051-0.485c-0.797-1.568,0.618-3.886,3.163-5.183
		c0.771-0.394,1.555-0.63,2.298-0.748V9.99l-12.271,5.023v11.856c0.256,1.516-1.105,3.451-3.349,4.594
		c-2.544,1.297-5.253,1.078-6.05-0.486c-0.797-1.566,0.619-3.887,3.162-5.182c0.771-0.393,1.551-0.629,2.295-0.748v-8.444v-8.4
		l3.941-1.59L25.114,1.59L29.057,0v8.4v11.817C29.303,21.729,27.941,23.656,25.705,24.796z"/>
</g>
</svg>