<?xml version="1.0" encoding="UTF-8"?>
<!DOCTYPE svg PUBLIC "-//W3C//DTD SVG 1.1//EN" "http://www.w3.org/Graphics/SVG/1.1/DTD/svg11.dtd">
<svg xmlns="http://www.w3.org/2000/svg" version="1.1" width="1350px" height="1350px" style="shape-rendering:geometricPrecision; text-rendering:geometricPrecision; image-rendering:optimizeQuality; fill-rule:evenodd; clip-rule:evenodd" xmlns:xlink="http://www.w3.org/1999/xlink">
<g><path style="opacity:0.979" fill="#4cac93" d="M 643.5,150.5 C 808,144.247 946.834,200.247 1060,318.5C 1164.41,435.734 1209.74,573.067 1196,730.5C 1176.43,883.88 1105.26,1006.71 982.5,1099C 865.482,1181.34 735.816,1212.67 593.5,1193C 436.712,1165.42 315.212,1085.25 229,952.5C 152.572,824.515 131.572,687.848 166,542.5C 209.898,386.284 304.398,272.117 449.5,200C 511.153,171.275 575.82,154.775 643.5,150.5 Z M 660.5,198.5 C 829.739,198.701 964.239,266.367 1064,401.5C 1140.4,514.477 1165.73,638.143 1140,772.5C 1106.75,914.634 1026.92,1021.47 900.5,1093C 762.664,1163.69 622.331,1169.02 479.5,1109C 346.332,1045.85 258.499,943.679 216,802.5C 180.302,666.719 198.968,539.053 272,419.5C 364.418,281.843 493.918,208.176 660.5,198.5 Z"/></g>
<g><path style="opacity:0.988" fill="#4cad93" d="M 829.5,342.5 C 828.833,319.996 828.167,297.33 827.5,274.5C 765.694,300.073 703.694,325.073 641.5,349.5C 636.935,324.945 627.435,302.612 613,282.5C 597.196,266.781 578.03,259.281 555.5,260C 547.454,258.279 540.621,254.446 535,248.5C 531.419,244.091 530.085,239.091 531,233.5C 531.574,231.508 532.741,230.008 534.5,229C 607.613,217.129 680.946,215.462 754.5,224C 790.409,228.982 825.576,237.148 860,248.5C 863.901,254.869 866.234,261.869 867,269.5C 869.696,289.405 864.696,307.072 852,322.5C 845.224,330.117 837.724,336.784 829.5,342.5 Z"/></g>
<g><path style="opacity:0.99" fill="#4cad93" d="M 586.5,431.5 C 586.709,432.922 587.209,434.255 588,435.5C 588.667,461.167 588.667,486.833 588,512.5C 587.283,513.044 586.783,513.711 586.5,514.5C 571.131,523.525 556.798,534.025 543.5,546C 521.142,548.261 502.642,557.761 488,574.5C 482.691,582.454 479.024,591.12 477,600.5C 475.657,614.924 473.657,629.258 471,643.5C 469.114,647.44 466.614,650.94 463.5,654C 462.167,654.667 460.833,654.667 459.5,654C 438.267,639.808 415.267,629.475 390.5,623C 377.567,619.136 364.9,619.802 352.5,625C 349.229,627.305 347.563,630.472 347.5,634.5C 348.27,639.928 350.103,644.928 353,649.5C 380.935,687.615 415.935,717.282 458,738.5C 499.809,728.899 538.643,735.732 574.5,759C 579.982,762.654 584.982,766.821 589.5,771.5C 573.523,779.978 561.356,792.311 553,808.5C 542.052,840.638 549.552,867.471 575.5,889C 589.269,898.611 604.602,902.944 621.5,902C 596.489,910.337 571.489,918.67 546.5,927C 526.128,939.654 521.962,956.487 534,977.5C 542.472,987.769 553.306,991.936 566.5,990C 607.666,969.473 648.332,948.139 688.5,926C 689.793,925.51 691.127,925.343 692.5,925.5C 683.583,937.421 673.916,948.755 663.5,959.5C 662.833,959.5 662.5,959.833 662.5,960.5C 638.008,974.916 613.008,988.583 587.5,1001.5C 586.067,1037.65 585.067,1073.65 584.5,1109.5C 584.667,1084.16 584.5,1058.83 584,1033.5C 573.667,1043.83 563.333,1054.17 553,1064.5C 539.167,1081 525.333,1097.5 511.5,1114C 509.167,1114.67 506.833,1114.67 504.5,1114C 501.833,1112.33 499.167,1110.67 496.5,1109C 489.463,1100.3 481.463,1092.63 472.5,1086C 466.645,1083.48 460.645,1082.98 454.5,1084.5C 449.403,1067.6 449.236,1050.6 454,1033.5C 456.232,1024.24 459.232,1015.24 463,1006.5C 470.711,989.41 478.711,972.41 487,955.5C 491.839,943.642 495.672,931.476 498.5,919C 498.215,917.11 497.215,915.777 495.5,915C 472.106,904.271 452.939,888.438 438,867.5C 422.676,840.652 424.343,814.652 443,789.5C 446.333,785.5 449.667,781.5 453,777.5C 453.667,776.5 453.667,775.5 453,774.5C 448.867,769.366 444.367,764.532 439.5,760C 429.855,752.178 419.855,744.845 409.5,738C 377.422,719.599 345.088,701.599 312.5,684C 286.096,668.874 261.929,650.707 240,629.5C 235,622.833 230,616.167 225,609.5C 223.002,605.671 221.502,601.671 220.5,597.5C 224.047,543.359 239.214,492.692 266,445.5C 287.939,408.872 314.439,375.705 345.5,346C 358.167,335.333 370.833,324.667 383.5,314C 405.995,296.516 429.829,281.016 455,267.5C 462.392,291.865 457.725,313.865 441,333.5C 428.304,346.53 415.304,359.196 402,371.5C 396.747,378.007 393.08,385.34 391,393.5C 390.163,404.656 393.163,414.656 400,423.5C 410.24,435.742 421.74,446.575 434.5,456C 444.341,462.42 454.007,469.087 463.5,476C 470.473,477.093 477.139,476.093 483.5,473C 489.865,466.775 494.031,459.275 496,450.5C 496.559,445.576 497.393,440.742 498.5,436C 499.088,410.238 500.922,384.404 504,358.5C 507.513,335.933 513.179,313.933 521,292.5C 535.141,288.731 548.641,290.564 561.5,298C 574.487,304.657 585.321,313.823 594,325.5C 594.494,327.134 594.66,328.801 594.5,330.5C 575.68,325.779 564.513,333.113 561,352.5C 560.298,376.074 565.965,398.074 578,418.5C 580.36,423.24 583.193,427.574 586.5,431.5 Z"/></g>
<g><path style="opacity:0.994" fill="#6ff7d4" d="M 829.5,342.5 C 829.985,404.545 829.485,466.545 828,528.5C 822.96,542.878 814.127,554.378 801.5,563C 781.404,577.607 759.07,582.941 734.5,579C 713.53,571.542 707.363,557.376 716,536.5C 730.671,512.063 752.171,497.396 780.5,492.5C 780.5,460.167 780.5,427.833 780.5,395.5C 752.947,405.943 725.614,416.943 698.5,428.5C 695.353,428.737 692.353,429.57 689.5,431C 688.058,431.377 687.058,432.21 686.5,433.5C 669.778,439.964 653.111,446.631 636.5,453.5C 635.174,502.025 635.174,550.525 636.5,599C 633.264,616.912 624.264,631.246 609.5,642C 593.328,653.446 575.328,659.613 555.5,660.5C 543.883,660.684 533.716,657.018 525,649.5C 518.087,639.364 517.087,628.697 522,617.5C 535.883,591.813 557.383,576.813 586.5,572.5C 586.5,553.167 586.5,533.833 586.5,514.5C 586.783,513.711 587.283,513.044 588,512.5C 588.667,486.833 588.667,461.167 588,435.5C 587.209,434.255 586.709,432.922 586.5,431.5C 586.333,411.497 586.5,391.497 587,371.5C 605.003,363.748 623.17,356.415 641.5,349.5C 703.694,325.073 765.694,300.073 827.5,274.5C 828.167,297.33 828.833,319.996 829.5,342.5 Z"/></g>
<g><path style="opacity:0.721" fill="#4aae93" d="M 698.5,428.5 C 696.244,434.075 692.244,435.742 686.5,433.5C 687.058,432.21 688.058,431.377 689.5,431C 692.353,429.57 695.353,428.737 698.5,428.5 Z"/></g>
<g><path style="opacity:0.991" fill="#4cac93" d="M 932.5,441.5 C 941.519,441.449 949.186,444.616 955.5,451C 961.538,456.436 966.871,462.436 971.5,469C 988.7,475.05 1006.37,479.05 1024.5,481C 1042.16,482.375 1059.83,483.708 1077.5,485C 1092.72,486.855 1104.22,494.355 1112,507.5C 1117.38,517.294 1121.38,527.628 1124,538.5C 1131.17,570.181 1136.34,602.181 1139.5,634.5C 1124.14,634.079 1108.81,633.246 1093.5,632C 1086.4,627.299 1078.56,624.799 1070,624.5C 1057.5,626.702 1045,626.869 1032.5,625C 1031.58,624.626 1030.75,624.126 1030,623.5C 1015.2,592.757 993.7,587.257 965.5,607C 961.833,609.833 958.167,612.667 954.5,615.5C 968.259,617.856 981.926,620.69 995.5,624C 1014.98,628.486 1031.48,637.986 1045,652.5C 1050.64,660.11 1054.97,668.443 1058,677.5C 1067.39,682.427 1077.22,683.594 1087.5,681C 1094.09,676.993 1098.09,671.16 1099.5,663.5C 1111.21,656.026 1122.88,655.859 1134.5,663C 1138.51,667.857 1141.35,673.357 1143,679.5C 1144.41,753.879 1126.41,823.212 1089,887.5C 1060.37,936.144 1025.7,980.144 985,1019.5C 984.5,956.168 984.333,892.834 984.5,829.5C 954.519,835.858 924.519,836.025 894.5,830C 843.946,816.124 822.446,783.291 830,731.5C 836.068,710.361 846.068,691.361 860,674.5C 869.377,663.622 879.544,653.622 890.5,644.5C 860.075,605.11 868.075,576.443 914.5,558.5C 914.415,536.557 914.582,514.557 915,492.5C 915.392,478.813 917.726,465.479 922,452.5C 924.382,447.621 927.882,443.954 932.5,441.5 Z"/></g>
<g><path style="opacity:0.998" fill="#6ff7d4" d="M 681.5,833.5 C 680.637,858.396 669.97,877.896 649.5,892C 668.202,886.434 686.869,880.434 705.5,874C 707.259,873.202 708.926,873.369 710.5,874.5C 711.035,876.261 712.035,877.594 713.5,878.5C 718.153,887.807 722.82,897.14 727.5,906.5C 715.966,913.1 704.299,919.433 692.5,925.5C 691.127,925.343 689.793,925.51 688.5,926C 648.332,948.139 607.666,969.473 566.5,990C 553.306,991.936 542.472,987.769 534,977.5C 521.962,956.487 526.128,939.654 546.5,927C 571.489,918.67 596.489,910.337 621.5,902C 604.602,902.944 589.269,898.611 575.5,889C 549.552,867.471 542.052,840.638 553,808.5C 561.356,792.311 573.523,779.978 589.5,771.5C 624.593,760.807 652.426,770.473 673,800.5C 678.493,810.806 681.327,821.806 681.5,833.5 Z"/></g>
<g><path style="opacity:0.977" fill="#4dad94" d="M 681.5,833.5 C 691.842,835.921 701.008,840.587 709,847.5C 712.435,852.301 714.601,857.634 715.5,863.5C 714.75,868.499 714.084,873.499 713.5,878.5C 712.035,877.594 711.035,876.261 710.5,874.5C 708.926,873.369 707.259,873.202 705.5,874C 686.869,880.434 668.202,886.434 649.5,892C 669.97,877.896 680.637,858.396 681.5,833.5 Z"/></g>
<g><path style="opacity:0.994" fill="#6ff7d4" d="M 584.5,1109.5 C 585.067,1073.65 586.067,1037.65 587.5,1001.5C 613.008,988.583 638.008,974.916 662.5,960.5C 663.167,960.5 663.5,960.167 663.5,959.5C 691.937,945.114 720.27,930.448 748.5,915.5C 749.583,914.635 749.749,913.635 749,912.5C 746.697,908.061 744.53,903.561 742.5,899C 742.645,898.228 742.978,897.561 743.5,897C 778.833,879.333 814.167,861.667 849.5,844C 850.784,843.316 851.951,843.483 853,844.5C 858.333,855.167 863.667,865.833 869,876.5C 869.711,878.367 869.211,879.867 867.5,881C 824.667,913.167 781.833,945.333 739,977.5C 738.5,1021.83 738.333,1066.17 738.5,1110.5C 686.997,1110.83 635.664,1110.5 584.5,1109.5 Z"/></g>
</svg>
